<svg width="228" height="126" viewBox="0 0 228 126" fill="none" xmlns="http://www.w3.org/2000/svg">
<path d="M194.5 1.29999H171.4C164.9 1.29999 159.8 6.39999 159.8 13V74.2C159.8 80.8 164.9 85.9 171.4 85.9C177.9 85.9 183 80.8 183 74.2V62H192.8C213.4 62 227.2 49.8 227.2 31.6V31.4C227.2 13.4 214 1.29999 194.5 1.29999ZM193.4 40.5H183V23H193C197.9 23 203.6 24.5 203.6 31.6V31.8C203.7 37.2 199.7 40.5 193.4 40.5Z" fill="#DC0035"/>
<path d="M90 95.9H74.1C72 95.9 70.4 97.5 70.4 99.6V122C70.4 124.1 72 125.7 74.1 125.7C76.2 125.7 77.8 124.1 77.8 122V114.5H88.2C90.1 114.5 91.7 113 91.7 111C91.7 109.1 90.2 107.5 88.2 107.5H77.8V102.7H90C91.9 102.7 93.5 101.2 93.5 99.2C93.5 97.4 91.9 95.9 90 95.9Z" fill="#6CBECF"/>
<path d="M111 98.3C110.2 96.5 108.7 95.5 106.8 95.5H106.4C104.5 95.5 103 96.5 102.2 98.3L92.3 120.7C92.1 121.2 91.9 121.7 91.9 122.3C91.9 124.3 93.4 125.8 95.4 125.8C96.9 125.8 98.2 124.9 98.8 123.5L100.6 119.2H112.3L114.1 123.3C114.8 124.9 116.1 125.8 117.7 125.8C119.7 125.8 121.3 124.2 121.3 122.2C121.3 121.7 121.2 121.3 120.9 120.7L111 98.3ZM109.6 112.4H103.5L106.5 105.2L109.6 112.4Z" fill="#6CBECF"/>
<path d="M149.5 105.9C149.5 103.1 148.6 100.7 146.9 99C144.9 97 141.9 95.9 138.2 95.9H128.3C126.2 95.9 124.6 97.5 124.6 99.6V122C124.6 124.1 126.2 125.7 128.3 125.7C130.4 125.7 132 124.1 132 122V116.4H136.1L142 123.9C143 125.2 144.1 125.8 145.6 125.8C147.4 125.8 149.2 124.5 149.2 122.3C149.2 121.1 148.7 120.3 148 119.5L144.2 114.8C147.7 113.1 149.5 110.1 149.5 105.9ZM142 106.3C142 108.4 140.4 109.7 137.8 109.7H132V102.7H137.6C139.6 102.7 142 103.3 142 106.3Z" fill="#6CBECF"/>
<path d="M179.3 95.7H178.6C177.1 95.7 176.1 96.3 175.3 97.6L168.2 109.1L161.2 97.6C160.4 96.4 159.3 95.7 157.8 95.7H157.1C155 95.7 153.4 97.3 153.4 99.4V122.1C153.4 124.2 155 125.8 157.1 125.8C159.1 125.8 160.8 124.2 160.8 122.1V110L165.1 116.6C165.9 117.9 167 118.5 168.2 118.5C169.4 118.5 170.5 117.9 171.3 116.6L175.7 109.9V122C175.7 124.1 177.4 125.7 179.4 125.7C181.5 125.7 183.1 124.1 183.1 122V99.4C183 97.3 181.4 95.7 179.3 95.7Z" fill="#6CBECF"/>
<path d="M113.5 0C95 0 79.5 10.6 72.8 26C81.9 26.6 89.2 34.3 89.2 43.6C89.2 52.9 82 60.5 72.8 61.2C79.4 76.5 94.7 86.7 113.3 86.7C138.1 86.7 157.6 67.7 157.6 43.4V43.2C157.6 18.5 138.6 0 113.5 0ZM133.5 43.5C133.5 55.5 124.9 64.5 113.5 64.5C102 64.5 93.3 55.4 93.3 43.2V43C93.3 31 101.9 22 113.3 22C124.8 22 133.5 31.1 133.5 43.3V43.5Z" fill="#DC0035"/>
<path d="M71.6 29H57.8V14.6C57.8 6.6 51.3 0 43.2 0C35.1 0 28.6 6.5 28.6 14.6V29H14.6C6.5 29 0 35.5 0 43.5C0 51.5 6.5 58.1 14.6 58.1H28.6V71.8C28.6 79.9 35.1 86.4 43.2 86.4C51.3 86.4 57.8 79.9 57.8 71.8V58.1H71.6C79.6 58.1 86.2 51.6 86.2 43.5C86.2 35.4 79.6 29 71.6 29Z" fill="#DC0035"/>
<path d="M43.0999 90.1C37.2999 90.1 32 87.2 28.7 82.6V110.8C28.7 119.2 35 125.8 43 125.8C51 125.8 57.2999 119.2 57.2999 110.8V82.8C54 87.3 48.7999 90.1 43.0999 90.1Z" fill="#6CBECF"/>
</svg>
